<svg xmlns="http://www.w3.org/2000/svg" width="1em" height="1em" fill="currentColor" viewBox="0 0 24 24" class="w-8 h-8 pointer-events-none ml-0 mr-1 !h-6 !w-6 text-base -ml-2 mr-1" aria-hidden="true" role="presentation"><path d="M6.927 12.75H5.75l1.794-5h1.415l1.791 5H9.573L8.272 8.893H8.23L6.927 12.75zm-.073-1.965h2.78v.825h-2.78v-.825z"></path><path fill-rule="evenodd" d="M2 6.75A2.75 2.75 0 014.75 4h7a2.75 2.75 0 012.75 2.75v7a2.75 2.75 0 01-2.75 2.75h-7A2.75 2.75 0 012 13.75v-7zM4.75 5.5c-.69 0-1.25.56-1.25 1.25v7c0 .69.56 1.25 1.25 1.25h7c.69 0 1.25-.56 1.25-1.25v-7c0-.69-.56-1.25-1.25-1.25h-7z" clip-rule="evenodd"></path><path d="M11.75 16.5H9v1.25a2.75 2.75 0 002.75 2.75h7a2.75 2.75 0 002.75-2.75v-7A2.75 2.75 0 0018.75 8H14.5v3.924h.272V10.75h.912v1.174h2.934v.877h-1.08c-.395 1.102-.93 2.012-1.61 2.756.76.592 1.696 1.03 2.822 1.286-.213.209-.5.632-.64.892-1.189-.314-2.147-.809-2.925-1.476-.799.649-1.754 1.136-2.876 1.491a5.41 5.41 0 00-.559-.87c1.096-.29 2.013-.711 2.763-1.29a6.935 6.935 0 01-.377-.473A2.749 2.749 0 0111.75 16.5z"></path><path d="M14.493 13.951c.217.35.464.676.745.975.536-.583.956-1.286 1.267-2.125H14.5v.949c0 .068-.002.135-.007.201z"></path></svg>