<svg width="1em" height="1em" viewBox="0 0 24 24" xmlns="http://www.w3.org/2000/svg" class="w-7 h-7 pointer-events-none !h-6 !w-6 text-base -ml-2 mr-1"><path d="M10.5 3l.212.005A4.5 4.5 0 0115 7.5v.75a.75.75 0 11-1.5 0V7.5l-.005-.176A3 3 0 0010.5 4.5h-3a3 3 0 00-2.995 2.824L4.5 7.5v9a3 3 0 002.824 2.995l.176.005h3l.176-.005A3 3 0 0013.5 16.5v-.75a.75.75 0 111.5 0v.75l-.005.212A4.5 4.5 0 0110.5 21h-3a4.5 4.5 0 01-4.495-4.288L3 16.5v-9a4.5 4.5 0 014.288-4.495L7.5 3h3zm7.198 5.395l.084.072 2.998 3.002c.037.037.07.077.097.12l.05.089.04.104c.022.068.033.142.033.218l-.002.057-.013.091-.008.037-.035.106-.034.069-.055.086a.785.785 0 01-.073.085l-2.998 3.002a.749.749 0 01-1.133-.978l.073-.084 1.718-1.72H9.75a.75.75 0 01-.102-1.495l.102-.006h8.69l-1.718-1.721a.751.751 0 01-.073-.977l.073-.085a.75.75 0 01.976-.072z" fill="currentcolor" fill-rule="evenodd"></path></svg>